<?xml version="1.0" encoding="UTF-8"?>
<svg version="1.1" xmlns="http://www.w3.org/2000/svg" width="500" height="500">
<path d="M0 0 C165 0 330 0 500 0 C500 165 500 330 500 500 C335 500 170 500 0 500 C0 335 0 170 0 0 Z " fill="#000000" transform="translate(0,0)"/>
<path d="M0 0 C110.88 0 221.76 0 336 0 C336 16.17 336 32.34 336 49 C225.12 49 114.24 49 0 49 C0 32.83 0 16.66 0 0 Z " fill="#FCFCFC" transform="translate(82,371)"/>
<path d="M0 0 C1.79244141 0.01740234 1.79244141 0.01740234 3.62109375 0.03515625 C5.41740234 0.04869141 5.41740234 0.04869141 7.25 0.0625 C8.17683594 0.07410156 9.10367188 0.08570312 10.05859375 0.09765625 C11.17189939 7.58732827 11.42378205 15.08157996 11.70703125 22.640625 C11.76424854 24.09823885 11.82180334 25.55583949 11.87966919 27.01342773 C12.00305763 30.13505383 12.12448854 33.25674737 12.24438477 36.37850952 C12.5340943 43.91367785 12.83542258 51.44838698 13.13549042 58.98314857 C13.23887714 61.58138159 13.34189898 64.17962889 13.44488525 66.77787781 C14.08529915 82.90758611 14.7646826 99.03548378 15.46634293 115.1626358 C15.55870659 117.28775247 15.65065679 119.41288669 15.74252319 121.5380249 C16.38980336 136.49373179 17.06509077 151.44761721 17.80631638 166.39898491 C17.91349916 168.56284583 18.0200278 170.72673804 18.12637329 172.89064026 C18.45789403 179.62764381 18.7951819 186.36423233 19.14453125 193.1003418 C19.90266593 208.11437053 20.22213354 223.06497534 20.05859375 238.09765625 C17.08859375 238.09765625 14.11859375 238.09765625 11.05859375 238.09765625 C10.64524441 230.52953176 10.23697582 222.96114385 9.83178711 215.39257812 C9.69420863 212.83294881 9.55558354 210.27337547 9.41577148 207.71386719 C8.66758346 194.0033891 7.99900425 180.29908239 7.58203125 166.57421875 C7.06109278 149.57636049 6.15756675 132.60263798 5.25488663 115.62160873 C4.84510719 107.89127319 4.44370239 100.16049643 4.04296875 92.4296875 C3.99930994 91.58868814 3.95565113 90.74768879 3.91066933 89.88120461 C3.05434911 73.35282976 2.30342087 56.8211188 1.65454102 40.28320312 C1.6201593 39.43345413 1.58577759 38.58370514 1.550354 37.70820618 C1.4889502 36.18535906 1.43006109 34.66240658 1.37469482 33.139328 C1.17026341 28.09395014 0.66960437 23.10938133 0.05859375 18.09765625 C-7.85317489 35.61978745 -15.62021583 53.19562959 -23.23851013 70.84759521 C-27.07553053 79.73229722 -30.94770459 88.60171699 -34.81640625 97.47265625 C-35.52507009 99.09814236 -36.23372906 100.72363059 -36.94238281 102.34912109 C-38.28822851 105.43605452 -39.63542428 108.52239395 -40.98339844 111.60839844 C-42.31762884 114.66400123 -43.64560777 117.7222291 -44.96972656 120.78222656 C-45.29256622 121.52606598 -45.61540588 122.2699054 -45.94802856 123.0362854 C-46.56000972 124.44641461 -47.17018544 125.85732915 -47.77828979 127.26913452 C-49.8286309 131.9848809 -49.8286309 131.9848809 -50.94140625 133.09765625 C-52.46068663 133.16945589 -53.98308107 133.18157632 -55.50390625 133.16015625 C-56.33019531 133.15113281 -57.15648437 133.14210937 -58.0078125 133.1328125 C-58.64589844 133.12121094 -59.28398437 133.10960937 -59.94140625 133.09765625 C-59.352755 129.7194552 -58.51158954 126.77817033 -57.13476562 123.640625 C-56.76347534 122.78782959 -56.39218506 121.93503418 -56.00964355 121.05639648 C-55.60556274 120.14188721 -55.20148193 119.22737793 -54.78515625 118.28515625 C-54.36399536 117.32101807 -53.94283447 116.35687988 -53.50891113 115.36352539 C-52.1577187 112.27284538 -50.79979961 109.1851772 -49.44140625 106.09765625 C-48.55812169 104.08223807 -47.67530475 102.06661488 -46.79296875 100.05078125 C-46.35774902 99.0570752 -45.9225293 98.06336914 -45.47412109 97.03955078 C-44.59904037 95.03866944 -43.72566384 93.0370419 -42.85400391 91.03466797 C-40.6760674 86.03496134 -38.47117448 81.05117193 -36.20703125 76.08984375 C-35.35802936 74.19663412 -34.50906919 72.30340577 -33.66015625 70.41015625 C-33.25470581 69.54318115 -32.84925537 68.67620605 -32.43151855 67.78295898 C-30.26847932 63.13751327 -30.26847932 63.13751327 -30.609375 58.17675781 C-31.26873047 57.14760254 -31.26873047 57.14760254 -31.94140625 56.09765625 C-32.7303125 54.82148438 -32.7303125 54.82148438 -33.53515625 53.51953125 C-44.81414126 37.71046209 -59.06129029 28.54003648 -77.94140625 24.09765625 C-104.06891351 20.1071674 -130.22520445 23.43913179 -151.94140625 39.09765625 C-155.43747486 41.94557731 -158.70570224 44.95982941 -161.94140625 48.09765625 C-162.54210937 48.62488281 -163.1428125 49.15210938 -163.76171875 49.6953125 C-179.74126107 64.22554749 -187.50826953 86.58365971 -191.94140625 107.09765625 C-192.12832031 107.89228271 -192.31523437 108.68690918 -192.5078125 109.50561523 C-194.17205369 117.31412279 -194.24642698 125.05845698 -194.20214844 133.00219727 C-194.19150527 135.26411255 -194.20205776 137.52521932 -194.21484375 139.78710938 C-194.22415764 149.70984585 -193.41480045 159.28215252 -191.94140625 169.09765625 C-191.7501416 170.37938721 -191.55887695 171.66111816 -191.36181641 172.98168945 C-188.16880293 193.05308081 -177.89125127 213.92020203 -161.37402344 226.26953125 C-138.74905045 242.37234276 -111.34305854 246.4256412 -84.09326172 242.27050781 C-67.47885757 239.22267528 -52.84750826 232.14472123 -41.94140625 219.09765625 C-27.95356546 198.4577032 -27.87282864 178.24606089 -26.94140625 153.09765625 C-47.73140625 153.09765625 -68.52140625 153.09765625 -89.94140625 153.09765625 C-89.94140625 150.12765625 -89.94140625 147.15765625 -89.94140625 144.09765625 C-66.18140625 144.09765625 -42.42140625 144.09765625 -17.94140625 144.09765625 C-17.94140625 179.73765625 -17.94140625 215.37765625 -17.94140625 252.09765625 C-20.25140625 252.09765625 -22.56140625 252.09765625 -24.94140625 252.09765625 C-25.77856428 247.56535014 -26.20059743 243.11113654 -26.4765625 238.51171875 C-26.51953964 237.809935 -26.56251678 237.10815125 -26.60679626 236.38510132 C-26.74211484 234.16445303 -26.87307983 231.94357325 -27.00390625 229.72265625 C-27.09541452 228.20831587 -27.18720854 226.69399272 -27.27929688 225.1796875 C-27.50330457 221.48587063 -27.72341109 217.79183339 -27.94140625 214.09765625 C-28.38798584 214.82065918 -28.83456543 215.54366211 -29.29467773 216.28857422 C-41.14391053 235.23280582 -56.25973821 247.14132379 -78.08203125 252.63671875 C-104.40987212 258.60309995 -134.33118081 255.91504727 -157.73657227 241.85009766 C-177.11640184 229.48705677 -189.73109401 212.39545128 -197.94140625 191.09765625 C-198.32167969 190.11152344 -198.70195312 189.12539063 -199.09375 188.109375 C-211.6182027 153.18269369 -209.29231541 109.03158559 -194.4453125 75.1953125 C-189.36596524 64.73317645 -183.81647919 54.73177237 -175.94140625 46.09765625 C-175.48813965 45.59669434 -175.03487305 45.09573242 -174.56787109 44.57958984 C-158.44019356 26.97182391 -136.14148289 13.29195608 -111.76831055 11.74755859 C-108.29348362 11.61689968 -104.82568788 11.62350114 -101.34936523 11.68603516 C-99.2434864 11.72283835 -97.1393728 11.7270501 -95.03320312 11.7265625 C-83.00392375 11.78574704 -71.54589619 12.74813991 -60.44140625 17.66015625 C-59.63461426 18.01021729 -58.82782227 18.36027832 -57.99658203 18.72094727 C-45.00173224 24.5641041 -33.16663031 33.29624782 -24.94140625 45.09765625 C-24.94140625 45.75765625 -24.94140625 46.41765625 -24.94140625 47.09765625 C-24.28140625 47.09765625 -23.62140625 47.09765625 -22.94140625 47.09765625 C-22.76844025 46.55165771 -22.59547424 46.00565918 -22.41726685 45.44311523 C-20.61418464 39.87844458 -18.52118919 34.51979519 -16.18359375 29.16015625 C-15.83507355 28.35400879 -15.48655334 27.54786133 -15.12747192 26.71728516 C-14.39814509 25.03258414 -13.666996 23.34867091 -12.93408203 21.66552734 C-11.8080804 19.07852752 -10.68879906 16.48869406 -9.5703125 13.8984375 C-8.85846399 12.25634083 -8.14623825 10.61440763 -7.43359375 8.97265625 C-7.09818573 8.19672119 -6.76277771 7.42078613 -6.41720581 6.62133789 C-3.57940165 0.11883804 -3.57940165 0.11883804 0 0 Z " fill="#F1F1F1" transform="translate(353.94140625,108.90234375)"/>
<path d="M0 0 C4.29 0 8.58 0 13 0 C15.38129462 4.97839407 17.70914393 9.97934647 20 15 C20.56074219 16.22686523 20.56074219 16.22686523 21.1328125 17.47851562 C22.2736178 19.99876407 23.38976122 22.52865656 24.5 25.0625 C25.04333984 26.25709839 25.04333984 26.25709839 25.59765625 27.47583008 C27.57252334 32.05432709 28.52729179 35.03812859 27 40 C26.06057514 42.02915769 25.07401615 44.03875312 24 46 C23.34 46 22.68 46 22 46 C18.04 36.76 14.08 27.52 10 18 C9.3972728 24.02727196 8.84236193 29.9112144 8.5447998 35.93942261 C8.50789897 36.67297852 8.47099814 37.40653443 8.43297911 38.1623193 C8.31166847 40.58580317 8.19390975 43.00944562 8.07617188 45.43310547 C7.98919383 47.18536941 7.90199393 48.93762234 7.81459045 50.68986511 C7.5788744 55.42795905 7.34624364 60.16619995 7.1141758 64.90447378 C6.869558 69.8879947 6.62206095 74.87137263 6.37487793 79.85476685 C5.90660203 89.30428034 5.44087473 98.75391764 4.97607946 108.20360291 C4.45067621 118.88311143 3.92251869 129.56248314 3.39408398 140.24184203 C2.74832869 153.29259723 2.10297565 166.34337206 1.45983887 179.39425659 C1.41413506 180.32164871 1.36843124 181.24904082 1.32134247 182.20453572 C1.07037001 187.29764254 0.81949667 192.39075421 0.56899261 197.4838841 C0.49378363 199.00855829 0.41820329 200.53321421 0.34223175 202.0578506 C0.13923575 206.13576976 -0.05686474 210.21388929 -0.24452209 214.29254532 C-0.28637902 215.17981595 -0.32823594 216.06708658 -0.37136126 216.98124421 C-0.45105779 218.67112136 -0.52863647 220.36110042 -0.60358 222.05119503 C-0.85933812 227.40151213 -1.36324839 232.68119619 -2 238 C-4.97 238 -7.94 238 -11 238 C-11.11942855 224.30374449 -10.78368349 210.68777443 -10.09790039 197.00976562 C-10.00059331 194.99677468 -9.90370781 192.98376332 -9.8072052 190.97073364 C-9.54708381 185.57023689 -9.28100539 180.17004937 -9.01364064 174.769907 C-8.73323961 169.08760833 -8.4580873 163.40505518 -8.18223572 157.72253418 C-7.7189279 148.19409192 -7.251939 138.66583593 -6.7824707 129.13769531 C-6.24097944 118.14733225 -5.70431326 107.15674219 -5.17044073 96.16600657 C-4.59956249 84.41398475 -4.02550702 72.66211979 -3.4503448 60.91030693 C-3.28572232 57.54282938 -3.12165068 54.17532535 -2.95768929 50.80781555 C-2.69948733 45.5084854 -2.43912072 40.20926568 -2.17712212 34.91012192 C-2.0816911 32.97366132 -1.98694519 31.03716682 -1.89295959 29.10063553 C-1.42080676 19.38186948 -0.88812729 9.69182947 0 0 Z " fill="#F1F1F1" transform="translate(140,109)"/>
<path d="M0 0 C3.25054029 2.66257313 4.55056903 6.11375325 6.1171875 9.89453125 C6.55684593 10.93028038 6.55684593 10.93028038 7.00538635 11.98695374 C7.96847606 14.25942699 8.92156321 16.53596207 9.875 18.8125 C10.55001945 20.40872271 11.22589285 22.00458456 11.90258789 23.60009766 C13.28102029 26.85072746 14.65671246 30.10249575 16.03076172 33.35498047 C18.7917428 39.87964203 21.61223134 46.37794855 24.4375 52.875 C25.49887316 55.32023667 26.56007961 57.76554509 27.62109375 60.2109375 C27.88974243 60.82988388 28.15839111 61.44883026 28.43518066 62.08653259 C31.62150779 69.42887491 34.79668927 76.77603505 37.97244263 84.12295532 C40.0029762 88.82018115 42.03433391 93.51705064 44.06556702 98.213974 C45.65993706 101.90080313 47.25409779 105.58772234 48.84765625 109.27490234 C55.16090396 123.88159901 61.48787656 138.48052237 68 153 C68.32049316 152.25878906 68.64098633 151.51757812 68.97119141 150.75390625 C72.97392507 141.49962 76.98409416 132.24857722 81 123 C81.32488403 122.25167908 81.64976807 121.50335815 81.98449707 120.73236084 C83.92523513 116.2632504 85.86898769 111.79546945 87.81658936 107.3293457 C88.43920256 105.90066968 89.06098734 104.47163235 89.6819458 103.04223633 C90.55134064 101.04149154 91.4237125 99.04207155 92.296875 97.04296875 C92.79541992 95.89852295 93.29396484 94.75407715 93.80761719 93.57495117 C95 91 95 91 96 90 C99.00003445 89.85822143 101.99757235 89.95771229 105 90 C102.80463297 97.05224066 100.04678501 103.74721464 97.07284546 110.50506592 C95.63579595 113.77079198 94.21162338 117.04214137 92.78515625 120.3125 C92.33309563 121.34738052 92.33309563 121.34738052 91.87190247 122.40316772 C88.10139374 131.04222533 84.39576308 139.7090909 80.6875 148.375 C80.01662935 149.94190643 79.34573158 151.50880125 78.67480469 153.07568359 C77.11588202 156.71684264 75.55770373 160.35831933 74 164 C70.04 164 66.08 164 62 164 C56.6375313 152.66742945 51.52709115 141.23479563 46.5 129.75 C46.10949463 128.85949951 45.71898926 127.96899902 45.31665039 127.05151367 C39.67885032 114.19431477 34.10997932 101.309131 28.60250854 88.39562988 C22.62036634 74.37283897 16.49927134 60.41254137 10.33984375 46.46679688 C6.68236458 38.17748683 3.06404447 29.87290754 -0.47265625 21.53125 C-0.81284286 20.73376343 -1.15302948 19.93627686 -1.50352478 19.11462402 C-1.81697342 18.37103638 -2.13042206 17.62744873 -2.45336914 16.86132812 C-2.72879044 16.21039185 -3.00421173 15.55945557 -3.28797913 14.88879395 C-5.26830977 9.63552588 -5.26830977 9.63552588 -4.00390625 6.640625 C-3.52824219 5.85171875 -3.05257812 5.0628125 -2.5625 4.25 C-2.08941406 3.45078125 -1.61632812 2.6515625 -1.12890625 1.828125 C-0.75636719 1.22484375 -0.38382813 0.6215625 0 0 Z " fill="#F0F0F0" transform="translate(184,183)"/>
<path d="M0 0 C4.4297642 0.79102932 5.89210172 1.98974785 8.5 5.625 C9.11304266 9.30325595 8.76122201 11.09068226 7.125 14.4375 C5.5 16.625 5.5 16.625 3.5 17.625 C0.56592458 17.90894278 -1.65046384 18.11494001 -4.5 17.625 C-7.74985922 14.94386615 -8.39575014 13.27366582 -9.0625 9.125 C-8.5 5.625 -8.5 5.625 -6.4375 2.6875 C-3.5 0.625 -3.5 0.625 0 0 Z " fill="#0C0C0C" transform="translate(273.5,387.375)"/>
<path d="M0 0 C2.475 0.495 2.475 0.495 5 1 C6.36328125 3.06640625 6.36328125 3.06640625 7.3125 5.5625 C7.63863281 6.38878906 7.96476562 7.21507812 8.30078125 8.06640625 C8.53152344 8.70449219 8.76226562 9.34257812 9 10 C11.52349243 6.87567603 13.27256146 3.61939504 15 0 C16.32 0 17.64 0 19 0 C19 5.61 19 11.22 19 17 C17.68 17 16.36 17 15 17 C14.67 15.35 14.34 13.7 14 12 C12.515 14.475 12.515 14.475 11 17 C9.125 16.75 9.125 16.75 7 16 C5.75 13.9375 5.75 13.9375 5 12 C4.67 13.65 4.34 15.3 4 17 C2.68 17 1.36 17 0 17 C0 11.39 0 5.78 0 0 Z " fill="#131313" transform="translate(106,388)"/>
<path d="M0 0 C0.66 1.32 1.32 2.64 2 4 C0.68 4 -0.64 4 -2 4 C-5.30185684 4.35304294 -5.30185684 4.35304294 -8 6 C-8.04080783 7.99958364 -8.04254356 10.00045254 -8 12 C-6.34385343 12.38218767 -4.67542976 12.71395102 -3 13 C-2.67 12.67 -2.34 12.34 -2 12 C-2.66 11.67 -3.32 11.34 -4 11 C-4 10.01 -4 9.02 -4 8 C-1.69 8 0.62 8 3 8 C3 10.97 3 13.94 3 17 C1.08458862 17.10841951 -0.83259773 17.18578079 -2.75 17.25 C-4.35101563 17.31960938 -4.35101563 17.31960938 -5.984375 17.390625 C-9 17 -9 17 -11.35546875 15.265625 C-13.6654036 12.08329196 -13.63682865 9.95540294 -13.44140625 6.12890625 C-13 4 -13 4 -11 1.4375 C-7.02032585 -0.4694272 -4.37958988 -0.29692135 0 0 Z " fill="#0B0B0B" transform="translate(347,388)"/>
<path d="M0 0 C1.32 0 2.64 0 4 0 C4.33 3.96 4.66 7.92 5 12 C6.32 12.33 7.64 12.66 9 13 C10.81115956 11.18884044 10.38199448 8.38721773 10.5625 5.9375 C10.64628906 4.83277344 10.73007812 3.72804688 10.81640625 2.58984375 C10.87699219 1.73519531 10.93757813 0.88054687 11 0 C12.32 0 13.64 0 15 0 C15.10832169 2.08218362 15.18573541 4.16599129 15.25 6.25 C15.29640625 7.41015625 15.3428125 8.5703125 15.390625 9.765625 C15 13 15 13 13.20703125 15.3984375 C10.05488282 17.68583724 7.79862274 17.41439521 4 17 C1 15 1 15 0 12 C-0.068991 9.93854893 -0.08467727 7.87498599 -0.0625 5.8125 C-0.05347656 4.72582031 -0.04445313 3.63914062 -0.03515625 2.51953125 C-0.02355469 1.68808594 -0.01195312 0.85664063 0 0 Z " fill="#0D0D0D" transform="translate(290,388)"/>
<path d="M0 0 C3.96 0 7.92 0 12 0 C12 0.99 12 1.98 12 3 C9.36 3 6.72 3 4 3 C4 4.32 4 5.64 4 7 C6.31 7 8.62 7 11 7 C11 7.99 11 8.98 11 10 C8.69 10 6.38 10 4 10 C4 11.32 4 12.64 4 14 C6.64 14 9.28 14 12 14 C12 14.99 12 15.98 12 17 C8.04 17 4.08 17 0 17 C0 11.39 0 5.78 0 0 Z " fill="#0B0B0B" transform="translate(134,388)"/>
<path d="M0 0 C2 2 2 2 2 5 C-0.66666667 4.33333333 -3.33333333 3.66666667 -6 3 C-5.67 3.99 -5.34 4.98 -5 6 C-1.49705129 7.71567661 -1.49705129 7.71567661 2 9 C2.1875 11.875 2.1875 11.875 2 15 C-1.69486103 17.46324069 -3.63293092 17.38991688 -8 17 C-9.9375 15.625 -9.9375 15.625 -11 14 C-11 13.34 -11 12.68 -11 12 C-7.97580475 12.58803797 -4.98241547 13.22678118 -2 14 C-2.33 13.01 -2.66 12.02 -3 11 C-6.50294871 9.28432339 -6.50294871 9.28432339 -10 8 C-9.74438677 5.6568787 -9.40729228 3.32156597 -9 1 C-5.98675805 -0.50662097 -3.31713623 -0.17770373 0 0 Z " fill="#0E0E0E" transform="translate(324,388)"/>
<path d="M0 0 C0.99 0 1.98 0 3 0 C3.06058594 0.77085937 3.12117188 1.54171875 3.18359375 2.3359375 C3.26738281 3.33882813 3.35117187 4.34171875 3.4375 5.375 C3.55931641 6.87160156 3.55931641 6.87160156 3.68359375 8.3984375 C3.84965626 10.97927613 3.84965626 10.97927613 5 13 C6.65 12.67 8.3 12.34 10 12 C10.33 8.04 10.66 4.08 11 0 C12.32 0 13.64 0 15 0 C15.77373974 10.78077374 15.77373974 10.78077374 12.9375 15.25 C9.28351612 17.42684146 7.18673873 17.62025759 3 17 C1.30078125 15.91796875 1.30078125 15.91796875 0 14 C-0.29296875 10.64453125 -0.29296875 10.64453125 -0.1875 6.8125 C-0.16042969 5.54019531 -0.13335937 4.26789063 -0.10546875 2.95703125 C-0.07066406 1.98121094 -0.03585937 1.00539063 0 0 Z " fill="#0B0B0B" transform="translate(359,388)"/>
<path d="M0 0 C0.99 0 1.98 0 3 0 C3.06058594 0.77085937 3.12117187 1.54171875 3.18359375 2.3359375 C3.26738281 3.33882813 3.35117188 4.34171875 3.4375 5.375 C3.55931641 6.87160156 3.55931641 6.87160156 3.68359375 8.3984375 C3.84965626 10.97927613 3.84965626 10.97927613 5 13 C6.65 12.67 8.3 12.34 10 12 C10.33 8.04 10.66 4.08 11 0 C12.32 0 13.64 0 15 0 C15.77373974 10.78077374 15.77373974 10.78077374 12.9375 15.25 C9.28351612 17.42684146 7.18673873 17.62025759 3 17 C1.30078125 15.91796875 1.30078125 15.91796875 0 14 C-0.29296875 10.64453125 -0.29296875 10.64453125 -0.1875 6.8125 C-0.16042969 5.54019531 -0.13335937 4.26789063 -0.10546875 2.95703125 C-0.07066406 1.98121094 -0.03585938 1.00539063 0 0 Z " fill="#0B0B0B" transform="translate(242,388)"/>
<path d="M0 0 C3.63 0 7.26 0 11 0 C11 0.99 11 1.98 11 3 C8.69 3 6.38 3 4 3 C4 4.32 4 5.64 4 7 C6.31 7 8.62 7 11 7 C11 7.99 11 8.98 11 10 C8.69 10 6.38 10 4 10 C4 12.31 4 14.62 4 17 C2.68 17 1.36 17 0 17 C0 11.39 0 5.78 0 0 Z " fill="#0E0E0E" transform="translate(204,388)"/>
<path d="M0 0 C3.68754757 0.49831724 5.60490662 1.10067643 8 4 C8.99 2.68 9.98 1.36 11 0 C12.32 0.33 13.64 0.66 15 1 C14.65066406 1.4846875 14.30132812 1.969375 13.94140625 2.46875 C10.57638044 7.42572853 9.32047616 11.01777843 9 17 C7.68 17 6.36 17 5 17 C4.96132813 16.12988281 4.96132813 16.12988281 4.921875 15.2421875 C4.51016897 9.5718727 3.41321793 6.51425597 0 2 C0 1.34 0 0.68 0 0 Z " fill="#121212" transform="translate(381,388)"/>
<path d="M0 0 C1.32 0 2.64 0 4 0 C4 4.29 4 8.58 4 13 C6.31 13 8.62 13 11 13 C11 14.32 11 15.64 11 17 C7.37 17 3.74 17 0 17 C0 11.39 0 5.78 0 0 Z " fill="#121212" transform="translate(223,388)"/>
<path d="M0 0 C1.32 0 2.64 0 4 0 C4 4.29 4 8.58 4 13 C6.31 13 8.62 13 11 13 C11 14.32 11 15.64 11 17 C7.37 17 3.74 17 0 17 C0 11.39 0 5.78 0 0 Z " fill="#1D1D1D" transform="translate(173,388)"/>
<path d="M0 0 C1.32 0 2.64 0 4 0 C4 4.62 4 9.24 4 14 C6.31 14 8.62 14 11 14 C11 14.99 11 15.98 11 17 C7.37 17 3.74 17 0 17 C0 11.39 0 5.78 0 0 Z " fill="#050505" transform="translate(154,388)"/>
<path d="M0 0 C1.1446875 0.3403125 1.1446875 0.3403125 2.3125 0.6875 C3.64328101 7.09944487 3.64328101 7.09944487 2.1875 9.6875 C0.3125 10.6875 0.3125 10.6875 -2.3125 10.4375 C-4.6875 9.6875 -4.6875 9.6875 -5.6875 8.6875 C-6.14441383 3.43299098 -6.14441383 3.43299098 -4.5 0.75 C-2.6875 -0.3125 -2.6875 -0.3125 0 0 Z " fill="#EBEBEB" transform="translate(274.6875,391.3125)"/>
<path d="M0 0 C3.00296082 1.0986442 4.48085688 2.54746531 6.5625 4.9375 C4.2525 4.9375 1.9425 4.9375 -0.4375 4.9375 C-0.4375 5.9275 -0.4375 6.9175 -0.4375 7.9375 C0.5525 8.2675 1.5425 8.5975 2.5625 8.9375 C1.9025 9.5975 1.2425 10.2575 0.5625 10.9375 C-3.99305556 10.38194444 -3.99305556 10.38194444 -5.4375 8.9375 C-5.89441383 3.68299098 -5.89441383 3.68299098 -4.25 1 C-2.4375 -0.0625 -2.4375 -0.0625 0 0 Z " fill="#E8E8E8" transform="translate(343.4375,391.0625)"/>
<path d="M0 0 C1.32 0 2.64 0 4 0 C4 5.61 4 11.22 4 17 C2.68 17 1.36 17 0 17 C0 11.39 0 5.78 0 0 Z " fill="#161616" transform="translate(191,388)"/>
<path d="M0 0 C0 0.99 0 1.98 0 3 C-3.34373475 2.44271087 -6.03312999 1.64826111 -9 0 C-5.67465243 -1.10844919 -3.37817425 -0.84454356 0 0 Z " fill="#D9D9D9" transform="translate(322,399)"/>
</svg>
